<svg width="466" height="192" viewBox="0 0 466 192" fill="none" xmlns="http://www.w3.org/2000/svg">
<g filter="url(#filter0_d_6_8756)">
<path d="M10 69.0301L29.3358 101.77L37.0704 94.3516L15.9612 62.9014L10 69.0301Z" fill="url(#paint0_linear_6_8756)"/>
<path d="M297.773 43.2236L296.968 47.5789L306.153 44.5136L305.025 39.1917L297.775 43.2236H297.773Z" fill="#0071B9"/>
<path d="M243.634 13.7102L213.826 47.9022L222.527 45.4838L250.886 10L243.636 13.7102H243.634Z" fill="url(#paint1_linear_6_8756)"/>
<path d="M403.313 60.4813L410.563 56.6111L408.468 74.9971L403.313 60.4813Z" fill="#1D2C5E"/>
<path d="M357.714 72.2553L364.32 73.7071L372.537 69.6752L365.287 66.9333L357.714 72.2553Z" fill="#1D2C5E"/>
<path d="M133.425 52.9008L134.392 74.0287L143.577 70.4801L140.838 48.8689L133.426 52.9008H133.425Z" fill="url(#paint2_linear_6_8756)"/>
<path d="M364.803 46.4505L357.552 50.4824L357.714 72.2553L365.126 68.5451L367.382 57.9011L364.804 46.4505H364.803Z" fill="url(#paint3_linear_6_8756)"/>
<path d="M363.837 73.7071L355.781 145.316L368.671 142.736L371.087 69.8369L363.837 73.7071Z" fill="#312370"/>
<path d="M379.466 148.703L379.789 158.38L404.442 166.282L411.853 162.412L387.524 143.543L363.033 141.446L355.783 145.316L379.468 148.703H379.466Z" fill="#21386E"/>
<path d="M287.946 131.607L293.907 128.382L297.935 135.479L303.575 132.414L304.702 141.768L340.633 148.22L347.723 144.188L298.256 114.028L263.13 119.995L256.363 126.607L287.944 131.607H287.946Z" fill="#21386E"/>
<path d="M276.504 43.547L269.254 47.5789L256.365 126.609L263.615 122.738L276.022 78.3857L276.504 43.5487V43.547Z" fill="url(#paint4_linear_6_8756)"/>
<path d="M219.143 54.1909L213.342 57.2561L213.825 59.1912L227.521 50.4824L221.559 44.0303L213.825 47.9005L219.142 54.1909H219.143Z" fill="#1D2C5E"/>
<path d="M234.772 147.575L176.284 118.543L183.534 112.898L242.022 143.541L234.772 147.573V147.575Z" fill="#21386E"/>
<path d="M181.762 39.5151L172.9 56.2877L182.245 53.5459L189.012 35.4814L181.762 39.5133V39.5151Z" fill="#1D2C5E"/>
<path d="M101.199 109.027L93.7872 114.188C93.7872 114.188 95.3991 122.575 97.4939 128.38C99.5887 134.187 104.423 138.864 104.423 138.864C107.645 141.929 111.351 144.186 115.702 145.476C123.92 147.895 133.265 146.283 141.322 141.121C143.417 139.831 146.318 137.734 148.09 135.961C140.195 140.799 101.202 109.026 101.202 109.026L101.199 109.027Z" fill="url(#paint5_linear_6_8756)"/>
<path d="M141.319 72.417L148.086 147.736L176.122 143.705L183.534 139.834L148.892 67.9018L141.802 70.3202L134.39 74.0305L141.319 72.417Z" fill="#1D2C5E"/>
<path d="M36.5858 98.5452L67.844 169.349L97.4921 159.834L104.742 154.995L43.1914 90.4797L35.4568 95.1566L29.334 101.769L36.584 98.5435L36.5858 98.5452Z" fill="url(#paint6_linear_6_8756)"/>
<path d="M345.79 131.93L346.273 135.479C348.85 135.156 351.428 134.834 353.846 134.027C356.585 133.059 362.386 130.479 364.479 128.544C363.512 128.867 349.978 132.414 345.788 131.93" fill="#1D2C5E"/>
<path d="M240.895 113.866L242.022 119.511C247.984 118.543 253.141 116.446 258.296 113.383C261.518 111.448 264.902 108.706 266.031 107.899C265.225 108.382 240.895 113.866 240.895 113.866Z" fill="#1D2C5E"/>
<path d="M255.559 85.8027L255.235 86.1261C255.397 86.1261 255.559 85.9644 255.559 85.8027Z" fill="#7D7F68"/>
<path d="M265.226 77.0939L270.705 71.1269L268.772 73.062V72.9003L267.16 74.6737L261.681 80.4808L266.837 85.1577L267.804 79.3507L270.382 81.6092L265.226 77.0939Z" fill="#7D7F68"/>
<path d="M265.226 77.0939L270.382 81.6092L272.315 69.3518L270.703 71.1252L265.225 77.0922L265.226 77.0939Z" fill="#7D7F68"/>
<path d="M242.83 69.8369C239.447 68.5468 234.774 68.8684 232.197 71.772C231.552 72.417 230.425 74.0304 230.102 74.8372C232.518 72.9021 237.03 72.4187 239.77 73.5471L242.832 69.8369H242.83Z" fill="#7D7F68"/>
<path d="M90.4019 81.7709C90.0789 79.8357 88.1456 78.2223 87.1799 77.739C85.568 76.9322 82.5075 76.7705 80.4127 77.2556C80.7358 78.5457 81.2187 80.1591 81.3802 80.8042C82.1862 80.9659 83.6365 81.1276 84.4425 81.4492C85.4099 81.9325 87.0201 82.901 87.3432 84.9978C87.826 87.5779 87.6662 90.158 86.5372 92.0949C89.5995 89.1913 91.0481 85.9662 90.4037 81.7726" fill="#7D7F68"/>
<path d="M272.315 67.095L262.326 76.7723L271.832 85.3211L272.315 67.0968V67.095Z" fill="#1E2D5F"/>
<path d="M75.98 162.597L73.7237 157.436L44.0774 91.309L43.4329 90.0189L42.1441 90.664L41.1766 91.1473L35.8598 93.7274C35.0539 92.4374 33.765 90.1789 32.9591 88.7271L21.0349 68.5659L17.9727 63.244L23.1279 60.0188C27.9619 56.9536 33.4402 54.0518 39.563 51.4699C51.4872 46.4696 63.5712 43.7278 74.6894 43.7278C78.3961 43.7278 81.9395 44.0512 85.1633 44.5345C90.6416 45.1795 95.7969 46.953 99.9865 49.8565C106.271 53.405 111.266 58.8887 114.005 65.339C116.262 70.661 116.745 76.9514 115.294 83.4034L114.488 87.2736L117.71 85.0151C119.805 83.4017 122.061 82.1116 124.478 81.145C128.667 79.3715 133.018 78.4031 137.367 78.4031C141.717 78.4031 145.423 79.2098 148.969 80.8216L151.225 81.79L151.063 79.2098L150.096 68.4042L149.934 66.6308L148.322 67.1142L143.327 68.4042L142.521 50.0182L179.258 38.2441L178.935 52.5983L181.674 53.2433L189.73 37.9207L213.738 59.2103L214.705 60.1787L215.673 59.2103C218.895 56.1451 222.923 53.565 227.274 51.7916L229.046 50.9848L227.757 49.3714L223.406 44.0494L250.964 12.2811L265.466 33.8923L243.391 45.8281L238.557 48.4082L244.197 48.5699C254.671 48.7316 264.016 53.2468 270.3 60.989L272.556 63.8925L274.007 65.6659L271.591 68.246L269.979 70.0194L264.5 75.9864L263.533 77.1148L264.66 78.0832L269.815 82.7601L271.749 84.5335L272.232 81.9534L274.165 69.696L274.648 66.4709L275.131 63.2457L278.031 45.0213H305.423L305.585 43.7313L306.067 40.6661H329.914L335.716 77.1165L336.039 79.535L337.972 78.0832C340.388 76.3098 342.967 75.018 345.707 73.8896C349.413 72.4379 353.118 71.7928 356.986 71.7928C361.497 71.7928 365.848 72.7613 369.555 74.858C369.716 74.858 369.716 75.0197 370.038 75.1814L371.809 75.8265L371.971 73.8914L372.454 69.8595L372.615 68.5694L371.327 68.246L366.493 67.1176L366.331 48.0865L403.229 56.1503L405.968 69.8595H408.869L411.77 58.0854L442.545 65.5042L410.964 160.5L388.568 153.403L388.406 144.694V143.404L387.117 143.242L364.721 140.017L366.01 128.566L366.333 125.824L363.917 127.114C362.789 127.759 361.66 128.243 360.533 128.566C356.826 130.018 353.122 130.663 349.415 130.663C348.288 130.663 347.32 130.663 346.193 130.501L344.26 130.34L344.583 132.275L346.195 142.274L313.486 136.467L311.714 121.629L311.231 116.79L308.975 120.984L305.268 128.241L298.34 115.5L296.245 111.63L295.601 115.985L294.15 125.824L265.47 121.309L267.726 107.762L268.209 104.696L265.47 106.31C260.797 109.052 255.319 111.31 249.035 112.762C246.778 113.245 244.524 113.73 242.106 113.89L240.817 114.052V141.147L184.422 113.245L182.327 112.277V138.567L157.03 142.277L155.902 130.826L155.579 127.761L153.323 129.858C149.94 133.083 146.233 135.665 142.205 137.438C138.015 139.212 133.664 140.18 129.476 140.18C125.289 140.18 121.097 139.212 117.392 137.6C110.625 134.375 105.63 128.406 103.535 120.828C102.568 117.279 102.246 113.57 102.729 109.699L103.212 105.667L100.311 108.57C98.2165 110.505 95.9602 112.44 93.5441 114.216L92.7381 114.861L93.0612 115.829L101.602 148.408L103.052 154.215L97.4123 155.988L81.4601 161.148L75.9817 162.6L75.98 162.597ZM83.0703 75.0197C82.2643 75.0197 81.4584 75.0197 80.4926 75.1814L79.3653 75.3431L77.7534 75.6665L78.2363 77.28L78.5594 78.2484L83.0703 93.2476L83.5531 94.6993L84.1975 96.7961L85.8094 95.3444L86.9367 94.376C91.4476 90.3441 92.8979 86.3122 91.9322 81.1502C91.2878 78.085 89.0315 76.6349 87.5811 75.9899C86.6136 75.3449 84.8419 75.0215 83.0703 75.0215V75.0197ZM205.849 75.5031L202.948 78.2449L195.375 85.502L193.763 87.1154L195.858 87.9221L203.914 90.9874L206.33 91.9558L205.847 89.3756C205.202 85.9888 205.041 82.6019 205.364 79.3768L205.847 75.5066L205.849 75.5031ZM238.719 67.1159C235.657 67.1159 232.596 68.406 230.501 70.8261C227.279 74.3747 226.635 79.6967 228.889 83.8903L229.534 85.0186L230.501 86.792L231.952 85.1786L232.919 84.2102L244.037 71.6294L244.843 70.661L246.294 69.0475L244.36 68.2408L243.072 67.7575C241.46 67.4341 240.171 67.1124 238.721 67.1124L238.719 67.1159Z" fill="#FFCB05"/>
<path d="M227.039 91.7715C227.522 92.2548 227.039 91.9332 227.522 92.2548L230.906 89.8364C230.423 89.513 229.938 89.0297 229.456 88.708C224.622 84.1928 225.91 74.1922 228.973 68.7085C220.594 75.4822 221.078 85.8045 227.039 91.7715Z" fill="#C7A008"/>
<path d="M267.804 97.4151C262.164 102.092 255.88 104.996 247.503 107.092C245.731 107.576 243.796 107.899 242.186 107.899C228.813 109.189 217.695 103.06 213.505 93.2215C213.022 92.0931 212.538 90.8031 212.216 89.5113C210.283 81.1241 211.893 73.7053 216.083 67.7383C216.566 67.0933 216.889 66.61 217.372 66.1249C217.21 66.2866 216.889 66.4483 216.727 66.6082C215.115 68.06 213.665 69.5117 212.538 71.2851C208.348 77.0922 206.736 84.6709 208.671 93.0581C208.994 94.3481 209.316 95.6382 209.96 96.7683C214.149 106.767 225.428 112.896 238.641 111.606C240.412 111.444 242.186 111.122 244.119 110.637C252.498 108.541 258.942 105.637 264.42 100.96C265.709 99.8318 267.16 98.5417 268.448 97.2499L268.287 97.0882C267.964 97.2499 267.804 97.2499 267.804 97.4116" fill="#C7A008"/>
<path d="M173.866 72.0936L188.689 51.1274L188.045 50.6441L173.705 70.8053L173.866 72.0954V72.0936Z" fill="#C7A008"/>
<path d="M272.315 69.3518L270.382 81.6092L267.804 79.3507L266.837 85.1577L261.681 80.4808L267.16 74.6737L268.772 72.9003V73.062L270.705 71.1269L272.317 69.3535L272.315 69.3518Z" fill="#C7A008"/>
<path d="M253.947 34.8382L259.102 32.5797L249.596 20.3223L246.533 24.8375L253.945 34.8364L253.947 34.8382Z" fill="#C7A008"/>
<path d="M109.576 65.1582C85.4064 35.8048 42.0642 51.6108 26.5948 65.3199L27.2393 66.4483C30.7844 64.3515 34.6508 62.5781 38.519 60.8029C53.9866 54.1909 68.8115 52.254 80.5742 54.3508C84.7637 54.8342 89.1148 56.1243 92.9813 58.7061C98.2981 61.7713 102.326 65.9632 104.744 71.4468C108.933 81.1241 105.227 94.0265 95.3991 104.67C107.806 93.2198 116.345 82.2525 109.578 65.1565L109.576 65.1582Z" fill="#C7A008"/>
<path d="M158.722 99.3502C158.56 98.8668 158.56 98.2218 158.398 97.7367C157.11 92.8981 154.209 89.0279 150.342 86.446C144.22 82.2525 135.519 81.4457 126.979 84.9943C122.468 86.9294 118.6 89.9946 115.378 93.5431C117.794 91.4464 120.533 89.8329 123.434 88.5428C131.974 84.8326 140.675 85.801 146.797 89.9946C150.664 92.5747 153.565 96.4467 154.853 101.285C155.015 101.769 155.176 102.414 155.176 102.899C155.499 104.834 155.659 106.609 155.659 108.544C155.498 114.189 153.403 119.835 150.019 124.672C149.537 125.478 148.892 126.123 148.248 126.93C150.181 125.157 151.954 123.382 153.403 121.285C156.948 116.446 158.881 110.801 159.204 105.157C159.204 103.222 159.043 101.287 158.722 99.3502Z" fill="#C7A008"/>
<path d="M135.035 92.2548C135.035 92.2548 138.58 88.7063 138.418 88.7063C134.067 88.5446 132.134 92.7382 131.972 93.0615C132.94 92.5782 133.906 92.4165 135.035 92.2548Z" fill="#C7A008"/>
<path d="M143.252 97.2551C143.414 97.9002 143.575 98.3835 143.575 99.0285C143.575 99.997 143.414 100.802 142.931 101.609C143.575 101.285 148.732 98.7052 146.797 93.5449C146.959 93.8683 143.091 97.2551 143.252 97.2551Z" fill="#C7A008"/>
<path d="M123.272 100.319C123.272 98.2218 126.979 92.8999 128.106 91.1247C122.305 94.835 119.727 99.8336 119.727 103.705C119.727 110.479 125.688 115.963 132.778 115.963C136.162 115.963 142.285 114.189 146.313 107.737C144.218 109.189 138.901 112.414 136 112.414C128.91 112.414 123.272 107.092 123.272 100.319Z" fill="#C7A008"/>
<path d="M173.062 106.447L173.223 133.704L177.574 134.027L176.607 102.899L173.062 106.447Z" fill="#C7A008"/>
<path d="M148.248 54.3526V56.771L168.872 50.6423L170.323 76.9322L173.868 72.0936L173.062 45.8037L148.248 54.3526Z" fill="#C7A008"/>
<path d="M210.281 63.7082L191.107 45.9671L188.691 51.1274L205.77 67.095L210.281 63.7082Z" fill="#C7A008"/>
<path d="M207.381 96.7701L184.661 89.1896L181.439 92.7382L203.997 101.77C206.575 106.609 210.443 110.803 215.277 113.706C219.949 116.61 225.428 118.383 231.067 118.866V129.995L234.613 131.769L235.74 114.996L207.381 96.7718V96.7701Z" fill="#C7A008"/>
<path d="M243.796 93.7066C249.436 92.4165 252.496 89.513 255.397 86.2878C253.302 88.0612 242.99 90.3197 241.218 90.8031L237.835 94.5133C239.285 94.5133 241.863 94.1899 243.796 93.7066Z" fill="#C7A008"/>
<path d="M233.645 54.9976C223.333 56.2877 218.016 64.9965 217.21 65.9649C221.076 62.7398 225.751 60.3196 231.067 59.1912C243.796 56.126 254.914 59.9979 261.843 68.5451L266.194 64.9965C259.265 56.6093 246.375 51.9324 233.647 54.9976" fill="#C7A008"/>
<path d="M268.127 97.0935C269.416 96.125 271.511 94.9967 272.8 93.7066L259.104 81.4492C257.976 82.7393 257.17 84.8361 255.882 85.8045L268.127 97.0952V97.0935Z" fill="#C7A008"/>
<path d="M338.54 129.995C324.2 118.06 325.005 92.7382 332.094 84.6744L325.81 44.837L311.952 46.6104L311.308 50.159H321.782L327.422 86.2861C320.331 94.3499 316.948 105.155 319.204 115.156C320.976 122.898 325.81 129.027 332.577 132.576C333.221 132.899 334.027 133.221 334.672 133.544L334.833 134.027L339.023 134.672C338.861 134.834 339.346 130.317 338.54 129.995Z" fill="#C7A008"/>
<path d="M283.272 50.6441L282.627 54.1926H298.418L303.09 79.8375L306.635 76.2889L302.929 49.1941L283.272 50.6458V50.6441Z" fill="#C7A008"/>
<path d="M310.342 100.319L305.187 113.544L306.476 117.093L313.726 96.9318L310.342 100.319Z" fill="#C7A008"/>
<path d="M295.196 92.0931L291.651 95.6417L287.784 119.511L291.491 120.801L295.198 92.0931H295.196Z" fill="#C7A008"/>
<path d="M366.253 84.351C368.348 85.8028 370.119 87.7379 371.408 89.9963C372.535 91.7698 373.18 93.5449 373.824 95.8034C375.596 103.06 373.501 110.803 368.99 116.931C368.508 117.576 368.023 118.221 367.54 118.705C369.312 117.091 391.87 100.48 369.956 78.7057C345.786 70.8036 336.603 86.4478 335.797 87.5762C338.375 85.4794 341.276 83.5443 344.498 82.4159C352.554 79.1907 360.61 80.3191 366.249 84.351" fill="#C7A008"/>
<path d="M354.169 85.9644C354.169 86.1261 357.714 82.4159 357.714 82.4159C353.363 82.5776 351.268 84.6744 351.591 85.6411C351.268 85.9644 351.108 86.4478 350.947 86.7694C351.753 86.2861 353.525 85.9627 354.169 85.9627" fill="#C7A008"/>
<path d="M362.225 91.4481C362.386 92.0931 362.386 92.5765 362.386 93.2215C362.386 94.0282 362.063 94.835 361.742 95.48C362.386 95.1566 367.543 93.5449 365.609 87.7379C365.77 88.0612 362.063 91.4481 362.225 91.4481Z" fill="#C7A008"/>
<path d="M350.785 109.672C355.619 109.834 361.098 106.931 364.964 101.609C355.135 103.705 344.663 87.0928 345.628 85.4811C341.922 88.2229 338.538 93.3832 338.378 97.0934C338.055 103.867 343.695 109.351 350.785 109.674" fill="#C7A008"/>
<path d="M405.084 152.735L407.341 154.187L435.7 69.0284L414.431 64.1898L414.269 69.1901L431.349 72.9004L405.084 152.735Z" fill="#C7A008"/>
<path d="M371.41 54.9976L371.571 59.8362L394.129 64.3515L402.83 105.641L406.375 102.092L397.996 60.3196L371.41 54.9976Z" fill="#C7A008"/>
<path d="M388.811 102.092L382.526 137.252L386.072 138.381L392.356 98.5435L388.811 102.092Z" fill="#C7A008"/>
<path d="M96.0418 150.155L85.568 111.769L81.7015 114.511L91.531 151.123L96.0418 150.155Z" fill="#C7A008"/>
<path d="M93.3026 92.5765C90.8865 95.1566 85.4081 100.157 82.3459 102.092L80.4127 96.125L76.3847 82.8992L73.807 74.0287L71.2294 77.2539L73.807 86.1244L77.835 99.1885L79.7682 105.155C84.1193 102.737 90.2421 97.575 93.3026 92.5747" fill="#C7A008"/>
<path d="M248.064 69.3744C242.424 64.2141 233.723 64.5358 228.568 70.1811C223.413 75.8264 223.734 84.5353 229.374 89.6955C229.857 90.1789 230.341 90.5023 230.824 90.8239L249.031 70.1794C248.708 70.0177 248.387 69.696 248.064 69.3726V69.3744ZM230.984 83.8902C229.212 80.6651 229.534 76.4715 232.273 73.568C234.851 70.8261 238.719 70.0194 242.102 71.3095L230.984 83.8902Z" fill="#3567B0"/>
<path d="M365.609 87.8995C365.77 88.5446 365.77 89.1896 365.77 89.8346C365.609 93.7048 362.063 96.6084 357.714 96.4467C353.363 96.285 349.979 93.0598 350.141 89.1896C350.302 85.6411 353.525 82.7375 357.391 82.5776C356.585 82.4159 355.779 82.2542 354.975 82.2542C347.725 81.9308 341.923 87.0928 341.602 93.3832C341.279 100.157 346.757 105.802 353.848 105.964C361.098 106.287 366.899 101.125 367.22 94.3516C367.703 92.0931 366.897 89.8364 365.609 87.8995Z" fill="#3466AF"/>
<path d="M147.119 95.6417C147.119 99.5119 143.574 102.577 139.384 102.577C135.195 102.577 131.649 99.5119 131.649 95.6417C131.649 92.0931 134.712 89.0296 138.74 88.7062C137.934 88.5446 137.128 88.5446 136.324 88.5446C129.073 88.5446 123.434 93.8665 123.434 100.319C123.434 107.092 129.073 112.414 136.162 112.414C143.251 112.414 149.052 107.092 149.052 100.319C149.052 97.9001 148.246 95.8034 146.957 93.8665C146.957 94.3499 147.119 94.9949 147.119 95.6399" fill="url(#paint7_linear_6_8756)"/>
<path d="M410.481 56.6336L407.259 69.8594L404.358 55.1819L364.721 46.4731L365.044 68.5694L371.005 69.8594L370.522 73.8913C370.522 73.8913 370.361 73.8913 370.361 73.7296C362.949 69.8594 353.764 69.3744 345.225 72.7612C342.325 73.8896 339.585 75.3414 337.169 77.1165L331.208 39.376H304.944L304.299 43.7312H276.586L273.364 63.0857L271.108 60.1822C264.341 51.9567 254.673 47.4415 243.877 47.1181L267.403 34.5373L250.964 10.0226L221.316 44.2146L226.471 50.505C221.799 52.4401 217.771 55.0202 214.387 58.2471L188.929 35.6674L180.067 52.6018L180.39 36.1508L140.591 48.8915L141.718 70.1811L148.486 68.4077L149.453 79.2133C141.718 75.6647 132.374 75.8264 123.833 79.5367C121.255 80.6651 118.838 81.9551 116.743 83.5686C118.193 76.9566 117.87 70.5045 115.292 64.6992C112.392 57.9255 107.075 52.1184 100.791 48.5716C96.2797 45.5064 90.9612 43.733 85.323 43.0879C71.6271 40.6695 55.0305 43.0879 38.757 50.0234C32.7958 52.6035 27.1559 55.507 22.1604 58.7322L15.8761 62.7641L19.7426 69.2161L31.6668 89.5373L35.3734 95.666L41.8193 92.4408L42.7867 91.9575L72.4348 158.083L75.3355 164.373L81.9412 162.277L97.8934 157.116L104.984 154.858L103.212 147.761L94.6713 115.182C97.0874 113.409 99.3437 111.472 101.438 109.375C100.956 113.245 101.277 117.277 102.244 120.987C104.501 128.89 109.656 135.18 116.908 138.567C124.642 142.277 134.149 142.277 142.849 138.567C147.2 136.632 151.228 134.052 154.45 130.665L155.578 143.729L183.614 139.535V114.375L242.102 143.407V115.506C244.518 115.344 246.775 114.861 249.193 114.377C255.638 112.764 261.117 110.667 266.111 107.765L263.694 122.764L295.276 127.765L297.047 116.314L305.265 131.637L310.26 121.959L312.032 137.927L347.803 144.217L345.87 132.122C350.704 132.605 355.859 131.96 360.854 130.187C361.982 129.703 363.271 129.218 364.238 128.573L362.788 141.476L386.634 144.862L386.796 154.701L411.61 162.443L443.997 64.8678L410.483 56.6423L410.481 56.6336ZM270.623 71.1495L272.235 69.3761L270.302 81.6335L265.147 76.9566L270.625 71.1495H270.623ZM249.677 20.8299L258.378 32.604L233.563 44.8614L231.792 42.2812C231.792 42.4429 249.677 20.8299 249.677 20.8299ZM85.4863 111.792L95.3157 149.854L79.3635 155.014L46.4934 81.4718C44.7217 82.4402 41.3381 84.0519 38.4374 85.5037L26.5132 65.3425C31.1856 62.2773 36.5024 59.6971 41.9808 57.2787C57.4484 50.6667 72.2733 48.7298 84.0359 50.8266C88.2255 51.3099 92.5766 52.6 96.443 55.1819C101.76 58.2471 105.788 62.4389 108.206 67.9226C114.007 81.1484 104.499 100.179 85.4863 111.792ZM159.121 105.018C158.96 110.663 156.865 116.309 153.32 121.146C149.936 125.823 145.425 129.533 139.947 131.951C126.089 137.918 112.234 131.951 108.527 118.726C104.982 105.985 113.361 90.8239 126.734 85.0169C135.274 81.3066 143.975 82.275 150.098 86.4686C153.964 89.0488 156.865 92.9207 158.154 97.7593C158.315 98.2427 158.477 98.8877 158.477 99.3728C159.121 101.308 159.121 103.243 159.121 105.018ZM234.689 131.953L176.522 102.921L176.683 133.403L161.699 135.5L160.571 122.919C165.244 115.017 166.856 105.5 164.438 96.9526C163.149 92.2757 160.731 88.0821 157.348 84.8569L155.253 59.212L148.486 60.9855L148.163 54.5334L172.332 47.2763L173.783 72.1145L191.507 47.1164L209.069 63.729L184.739 89.3739L207.62 98.4061C210.198 103.245 214.066 107.277 218.9 110.342C223.572 113.245 229.051 115.019 234.691 115.502V131.953H234.689ZM204.558 89.6973L196.502 86.6321L204.075 79.375C203.592 82.7619 203.752 86.1487 204.558 89.6973ZM267.721 97.4394C262.081 102.116 255.796 105.02 247.419 107.117C245.647 107.6 243.712 107.923 242.102 107.923C228.73 109.213 217.611 103.085 213.422 93.2458C212.939 92.1174 212.454 90.8274 212.133 89.5356C210.2 81.1484 211.81 73.7296 215.999 67.7627C217.127 65.9892 218.577 64.5375 220.189 63.0857C224.055 59.5372 229.051 57.1187 234.691 55.667C247.419 52.6018 258.537 56.4737 265.466 64.8609L241.296 90.6657C242.908 90.9891 245.486 90.504 247.419 90.0207C253.221 88.5689 256.443 85.5054 259.182 82.2785L268.85 90.9873L271.75 93.5675C270.462 95.0192 269.173 96.3093 267.722 97.4377L267.721 97.4394ZM319.121 131.793L313.804 96.9561L306.392 116.149L295.274 92.1174H295.112L290.761 120.019L272.232 116.794L274.809 101.311C275.454 100.666 276.26 100.021 276.904 99.2146L282.865 93.0859L277.064 87.7639L283.348 50.6684H302.039L306.712 76.3133L312.029 46.6365H325.401L331.041 82.7636C323.951 90.8274 320.568 101.633 322.824 111.634C324.596 119.376 329.429 125.504 336.197 129.213C336.841 129.536 337.647 129.858 338.291 130.181L338.936 134.858L319.117 131.793H319.121ZM365.364 120.342C363.269 121.794 361.013 123.084 358.596 123.891C353.762 125.664 349.09 126.149 344.739 125.181C341.838 124.536 339.099 123.408 336.683 121.794C332.976 119.052 330.237 115.182 328.948 110.182C327.498 104.215 328.787 97.7628 332.011 92.1174C333.622 89.3756 335.717 86.7955 338.133 84.537C340.873 82.1186 344.095 80.0218 347.478 78.73C355.696 75.6647 363.752 76.7949 369.392 80.8268C371.486 82.2785 373.258 84.2136 374.547 86.4721C375.514 88.2455 376.319 90.1824 376.803 92.2791C378.575 99.5362 376.48 107.278 371.969 113.407C370.519 116.149 368.103 118.407 365.364 120.342ZM407.257 153.244L393.561 149.212L392.434 98.5695L385.505 137.6L370.521 135.182L371.648 123.891C381.477 115.666 386.633 102.601 383.732 90.6674C382.443 85.5072 379.865 80.8285 375.997 77.4416L377.286 64.2158L371.646 62.7641L371.808 55.667L397.588 60.8272L406.288 101.955L415.15 65.0208L434.807 69.3761L407.254 153.243L407.257 153.244Z" fill="url(#paint8_linear_6_8756)"/>
<path d="M95.6371 81.6317C94.1868 73.8896 84.036 69.5361 73.8853 75.0197L76.4629 83.8902L80.4909 97.116L82.4241 103.083C89.9972 98.4061 97.5704 92.4391 95.6371 81.6317ZM85.6479 93.7274C84.5206 90.1789 82.1028 82.4367 82.1028 82.4367C82.1028 82.4367 81.6199 80.8233 80.9755 78.8882C83.0703 78.5648 85.165 78.7265 86.7769 79.5332C87.7444 80.0166 89.3546 80.985 89.6777 83.0818C90.6451 87.2754 89.1948 90.5005 85.6497 93.7257L85.6479 93.7274Z" fill="#3C5AA6"/>
</g>
<path fill-rule="evenodd" clip-rule="evenodd" d="M403 0H404V1H405V3H406V5H407V8H406V6H405V5H404V3H403V4H402V1H403V0ZM402 8H401V4H402V8ZM402 8H403V9H402V8ZM407 8H408V12H407V8ZM405 16H406V18H405V17H404V16H405ZM404 17V18H405V20H404V19H403V17H404ZM400 20H401V22H400V20ZM401 22H402V23H401V22ZM413 16H414V17H415V18H416V19H415H414V18H413V16ZM416 18V17H415V16H414V15H415H416V16H417V18H416ZM423 6H425V7H423V6ZM428 5H425V6H428V5ZM425 12H426H427V11H428V10H429V9H430V7H431V5V4H428V5H430V6H429V7H428V8H427V9H426V10H425V12ZM424 13H425V12H424V13ZM422 14V13H424V14H422ZM422 14V15H421V14H422ZM421 16H422V18H421V16ZM423 19H422V21H423V19ZM437 22H438V23H437V22ZM437 23V24H436V23H437ZM434 24H435V25H434V24ZM433 25H432V26H433V25ZM429 27H430V28H429V27ZM431 29H430V28H431V29ZM432 30H431V29H432V30ZM432 31V30H433V31H432ZM432 31V32H431V31H432ZM430 32H429V33H430V32ZM425 34H426V35H425V34ZM427 36H426V35H427V36ZM428 37H427V36H428V37ZM428 38V37H429V38H428ZM425 39V38H428V39H425ZM422 40V39H425V40H422ZM420 42V40H421H422V41H421V42H420ZM419 43V42H420V43H419ZM418 44V43H419V44H418ZM416 47V45H415V44H416H417H418V45H417V47H416ZM415 48V47H416V48H415ZM415 48V49H412V48H415ZM426 34H428V33H426V34ZM423 36H424V37H423V36ZM423 36V35H422V34H421V38H422H423V37H422V36H423ZM425 27H424V28H423V30H424V28H425V27ZM425 27H426V25H427V24H426V25H425V27ZM405 40H404V41H402V42H404V43H408V42H404V41H405V40ZM400 40H401V41H400V40ZM402 29H401V28H400V27H399V28H400V29H401V30H402V29ZM409 43H411V44H409V43ZM411 44H413V45H411V44ZM425 31H423V32H425V31Z" fill="#101010"/>
<path fill-rule="evenodd" clip-rule="evenodd" d="M403 3H404V5H405V7H404V8H403H402V4H403V3ZM415 17H416V18H415V17ZM405 18H406V19H405V18ZM424 7H425V6H426H427H428V5H429H430V6H429V7H428V8H427V9H426V10H425V9H424V7Z" fill="#686868"/>
<path fill-rule="evenodd" clip-rule="evenodd" d="M415 16H414V17H415V16ZM405 17H404V18H405V17Z" fill="white"/>
<path fill-rule="evenodd" clip-rule="evenodd" d="M401 20H402V21H401V20ZM409 23H410V22H412V23H411V24H409V23Z" fill="#F84848"/>
<path fill-rule="evenodd" clip-rule="evenodd" d="M417 19H418H419V22H418V23H417H416V20H417V19ZM402 21H401V22H402V21Z" fill="#E00000"/>
<path fill-rule="evenodd" clip-rule="evenodd" d="M420 20H419V22H418V23H417V24H419V23H420V22V20ZM408 21H409H410H412V22H410V23H409V24H408V21ZM411 24V25H409V24H411ZM411 24V23H412V24H411ZM402 22H403V24H402V22Z" fill="#B00000"/>
<path fill-rule="evenodd" clip-rule="evenodd" d="M406 6H405V7H406V6ZM407 8H406V11H405V12H404V11H403V12H404V13H405V14H406V12H407V8ZM413 11H410V12H413V11ZM419 9H420V10H419V9ZM423 7H422V8H423V7ZM424 9H425V10H424V9ZM425 11H424V12H422V13H420V14H419V20H420V22H421V21H422V19H421V16H420V14H422V13H424V12H425V11ZM415 12H416V13H415V12ZM414 15H413V16H414V15ZM416 15H417V16H416V15ZM417 18H416V19H417V18ZM413 18H414V19H413V18ZM413 21H412V22H413V21ZM409 19H410V20H409V19ZM407 20H406V19H405V20H406V21H407V20ZM404 16H403V17H404V16ZM403 14H404V15H403V14ZM402 19H401V20H402V19ZM402 21H403V22H402V21ZM404 28H403V27V26V25H402V24H401V25V26H399V27H400V28H401V29H404V28ZM403 37V38H404V39V41H401V39H400V38H399V37H403ZM421 31V30H423V28H424V27H425V25H424H423V26H422V27H421V28H420V29H419V33H417V34H416V36H415V37H413V38H411V39H407V38H405V41H404V42H405H407H410V43H412V44H417V43H419V42V41H420V39H421V33H422V35H423V36H426V37H427V38H428V37H427V36H426V35H425V34H426V33H428V32H430V31H431H432V30H431V29H430V28H429V27H430V26H431V25H433V24H435V23H437V20V18V17H436V16H435V17H433V18H431V19H430V20H427V19H425V20H427V21H426V22H427V25H426V28H427V29H428V30H427V31H426V32H425H424V33H422V31H421ZM421 31H420V32H421V31ZM412 47H413V48H412V47ZM415 47H414V48H415V47ZM420 23H419V24H418V25H419V24H420V23ZM430 17H429V18H430V17ZM433 14H434V15H433V14Z" fill="#E8B800"/>
<path fill-rule="evenodd" clip-rule="evenodd" d="M408 12H413V13H414V15H412V16H407V15H406V13H408V12ZM400 23H399V24H398V25H399V24H400V23ZM422 22H421V23H422V22ZM423 21H424V22H423V21ZM424 22H426V23H424V22ZM428 18H430V19H428V18ZM431 17H430V18H431V17ZM432 16V17H431V16H432ZM432 16V15H433V16H432ZM434 14H435V15H434V14ZM401 36V35H399V36H401Z" fill="#F8F878"/>
<path fill-rule="evenodd" clip-rule="evenodd" d="M421 7H422V8H421V7ZM421 8V9H420V8H421ZM403 9H402V11H403V9ZM404 12H403V13H404V12ZM406 12H408V13H406V12ZM408 12V11H410V12H408ZM413 11H415V12H413V11ZM405 27V26H403V27V28H404V27H405ZM398 37V36H400V37H398ZM415 44H413V45H412V46V47H413V48H414V47H416V45H415V44ZM414 47H413V46H414V47ZM426 37V36H424V37H426ZM426 37H427V38H426V37ZM434 13H436V14H434V13ZM432 14H433V15H432V14ZM431 16V15H432V16H431ZM431 16V17H430V16H431ZM429 17H428V18H427V19H428V18H429V17ZM425 21H424V22H425V21ZM422 22H423V23H422V22ZM426 23H425V24H426V23ZM421 30H422V31H421V30ZM421 31V32H420V31H421ZM420 41H419V42H420V41ZM409 42H410V43H409V42ZM404 37H403V38H404V37ZM401 32H402V33H401V32ZM403 30H402V31H403V30ZM399 25H398V26H399V25ZM401 17H402V18H401V17ZM403 16H402V17H403V16ZM403 19H404V20H403V19ZM408 21H407V22H408V21ZM412 20H413V21H412V20ZM419 9H418V10H419V9ZM399 38H400V39H399V38ZM402 35H401V37H402V35Z" fill="#C08800"/>
<path fill-rule="evenodd" clip-rule="evenodd" d="M417 10H418V11H417V10ZM417 11V12H415V11H417ZM402 24V23H400V22H399V23H398V24H397V25H398V24H399V23H400V24H402ZM403 25H402V24H403V25ZM403 25H404V26H403V25ZM420 14H421V16H420V14ZM421 22H420V24H419V25H418V26H419V25H420V24H421V22ZM423 21V22H421V21H423ZM425 21V20H423V21H425ZM426 22V21H425V22H426ZM426 22H427V24H426V22ZM437 14H436V17H437V22H438V17H437V14ZM423 30H422V33H421V34H422V33H423V30ZM427 30V31H425V30H427ZM427 29H428V30H427V29ZM426 28H427V29H426V28ZM426 28H425V27H426V28ZM426 37H423V38H421V39H420V40H422V39H425V38H426V37ZM411 45H412V48H411V45ZM405 38H404V40H405V38ZM401 34H402V35H399V34H400V33H401V34ZM399 35V36H398V35H399ZM403 36V35H402V36H403ZM403 36V37H404V36H403ZM405 13H404V14H405V13ZM402 15H403V16H402V15ZM402 18H401V19H400V20H401V19H402V18ZM398 26H399V27H398V26ZM409 19H408V20H409V19ZM422 18H421V19H422V18ZM436 23H435V24H436V23ZM433 24H434V25H433V24ZM432 25H431V26H430V27H431V26H432V25ZM430 31H431V32H430V31ZM429 32H428V33H429V32ZM418 43H417V44H418V43ZM413 46H414V47H413V46ZM412 43H411V44H412V43ZM408 42H409V43H408V42ZM402 41H401V42H402V41ZM400 39H401V40H400V39ZM399 37H398V38H399V37ZM401 31H402V32H401V31ZM403 29H402V30H403V29Z" fill="#805000"/>
<path fill-rule="evenodd" clip-rule="evenodd" d="M404 7H406V8V11H405V12H404V11H403V8H404V7ZM430 18H431V19H430V18ZM427 20V19H430V20H427ZM427 20V21H425V20H427ZM431 18H433V17H435V16H436V15V14H435V15H433V16H432V17H431V18ZM426 31H425V32H426V31ZM423 32H424V33H423V32ZM401 36H400V37H401V36ZM403 36H402V37H403V36ZM419 29V33H417V34H416V36H415V37H413V38H411V39H407V38H404V36H403V35H402V34H401V33H402V31H403V29H404V27H405V26H404V25H403V22V21H402V17H403V20H406V21H407V22H408V24H409V25H411V24H412V22H413V20H412V21H407V20H406V19V16H403V15H404V14H406V15H407V16H412V15H413V16V19H416H417V20H416V23H417V24H418V26H419V25H420V24H421V23H423V22H424V23H425V24H426V25H425H423V26H422V27H421V28H420V29H419ZM417 19H419V14H420V13H422V12H424V11H425V10H424V8V7H423V8H422H421V9H420V10H419H418V11H417V12H416V13H415V12H413V13H414V15H417V19ZM408 19H410V20H408V19ZM399 24H401V26H399V24Z" fill="#F8E800"/>
<defs>
<filter id="filter0_d_6_8756" x="0" y="0" width="465.997" height="191.349" filterUnits="userSpaceOnUse" color-interpolation-filters="sRGB">
<feFlood flood-opacity="0" result="BackgroundImageFix"/>
<feColorMatrix in="SourceAlpha" type="matrix" values="0 0 0 0 0 0 0 0 0 0 0 0 0 0 0 0 0 0 127 0" result="hardAlpha"/>
<feOffset dx="6" dy="6"/>
<feGaussianBlur stdDeviation="8"/>
<feComposite in2="hardAlpha" operator="out"/>
<feColorMatrix type="matrix" values="0 0 0 0 0 0 0 0 0 0 0 0 0 0 0 0 0 0 0.25 0"/>
<feBlend mode="normal" in2="BackgroundImageFix" result="effect1_dropShadow_6_8756"/>
<feBlend mode="normal" in="SourceGraphic" in2="effect1_dropShadow_6_8756" result="shape"/>
</filter>
<linearGradient id="paint0_linear_6_8756" x1="32.1788" y1="97.2788" x2="16.0034" y2="67.1687" gradientUnits="userSpaceOnUse">
<stop stop-color="#0070B6"/>
<stop offset="1" stop-color="#1D2C5E"/>
</linearGradient>
<linearGradient id="paint1_linear_6_8756" x1="229.12" y1="35.6933" x2="249.628" y2="13.7217" gradientUnits="userSpaceOnUse">
<stop stop-color="#0070B6"/>
<stop offset="1" stop-color="#1D2C5E"/>
</linearGradient>
<linearGradient id="paint2_linear_6_8756" x1="139.724" y1="72.3671" x2="137.27" y2="51.8284" gradientUnits="userSpaceOnUse">
<stop stop-color="#0070B6"/>
<stop offset="1" stop-color="#1D2C5E"/>
</linearGradient>
<linearGradient id="paint3_linear_6_8756" x1="363.584" y1="68.4142" x2="362.615" y2="49.8596" gradientUnits="userSpaceOnUse">
<stop stop-color="#125D9E"/>
<stop offset="1" stop-color="#1D2C5E"/>
</linearGradient>
<linearGradient id="paint4_linear_6_8756" x1="295.208" y1="41.6631" x2="273.675" y2="75.898" gradientUnits="userSpaceOnUse">
<stop stop-color="#125D9E"/>
<stop offset="1" stop-color="#1D2C5E"/>
</linearGradient>
<linearGradient id="paint5_linear_6_8756" x1="104.956" y1="96.5689" x2="119.647" y2="125.422" gradientUnits="userSpaceOnUse">
<stop stop-color="#105FA1"/>
<stop offset="1" stop-color="#1D2C5E"/>
</linearGradient>
<linearGradient id="paint6_linear_6_8756" x1="49.5066" y1="86.7753" x2="66.5076" y2="126.148" gradientUnits="userSpaceOnUse">
<stop stop-color="#105FA1"/>
<stop offset="1" stop-color="#1D2C5E"/>
</linearGradient>
<linearGradient id="paint7_linear_6_8756" x1="124.12" y1="101.209" x2="149.798" y2="101.209" gradientUnits="userSpaceOnUse">
<stop stop-color="#3C5AA6"/>
<stop offset="0.93" stop-color="#2B73B9"/>
<stop offset="1" stop-color="#2A75BB"/>
</linearGradient>
<linearGradient id="paint8_linear_6_8756" x1="16.7707" y1="87.9218" x2="445.051" y2="87.9218" gradientUnits="userSpaceOnUse">
<stop stop-color="#3C5AA6"/>
<stop offset="0.93" stop-color="#2B73B9"/>
<stop offset="1" stop-color="#2A75BB"/>
</linearGradient>
</defs>
</svg>
